<svg width="386" height="80" viewBox="0 0 386 80" fill="none" xmlns="http://www.w3.org/2000/svg">
<path d="M50.9533 34.0484C50.8736 33.1357 51.0144 32.2173 51.3639 31.3705C51.7134 30.5237 52.2613 29.7732 52.9615 29.1824C54.3087 28.1521 55.9576 27.5939 57.6536 27.5939C59.3497 27.5939 60.9985 28.1521 62.3457 29.1824C63.0529 29.7692 63.6083 30.5179 63.9646 31.365C64.3209 32.212 64.4677 33.1325 64.3926 34.0484V79.7725H50.9533V34.0484Z" fill="#6CB2FF"/>
<path d="M70.9982 34.126C70.9788 33.1713 71.1631 32.2234 71.5389 31.3455C71.8922 30.5754 72.3904 29.8805 73.0064 29.2987C73.6001 28.746 74.2951 28.3133 75.0531 28.0244C75.8505 27.7622 76.6853 27.6317 77.5247 27.6382C78.3517 27.6281 79.1744 27.7587 79.9577 28.0244C80.7321 28.3032 81.4416 28.7368 82.043 29.2987C82.6473 29.8821 83.1326 30.5772 83.4719 31.3455C83.865 32.218 84.0501 33.1698 84.0126 34.126V48.9556L99.1896 30.38C99.787 29.6518 100.522 29.0483 101.352 28.6036C102.107 28.1791 102.93 27.8915 103.785 27.754C104.628 27.5995 105.491 27.5995 106.334 27.754C107.119 27.9041 107.866 28.2059 108.535 28.6423C109.259 29.1154 109.877 29.7334 110.35 30.4574C110.814 31.1685 111.117 31.9725 111.238 32.813C111.411 33.6538 111.411 34.521 111.238 35.3618C111.002 36.2322 110.551 37.0292 109.925 37.679L97.7607 51.2726L115.757 79.6957H100.773L89.1875 60.6954L83.8581 66.5268V79.7729H70.8438L70.9982 34.126Z" fill="#6CB2FF"/>
<path d="M117.957 34.0491C117.879 33.1402 118.016 32.2258 118.359 31.3803C118.701 30.5347 119.238 29.7818 119.926 29.1831C121.273 28.1428 122.937 27.5974 124.638 27.6384C126.34 27.591 128.006 28.1371 129.349 29.1831C130.049 29.7739 130.597 30.5244 130.947 31.3712C131.296 32.218 131.437 33.1364 131.357 34.0491V79.7731H117.957V34.0491Z" fill="#6CB2FF"/>
<path d="M45.1515 79.7721H38.7415C34.7343 79.7721 30.8912 78.1802 28.0577 75.3467C25.2242 72.5132 23.6324 68.6701 23.6324 64.6629V21.6951H5.27249e-05V11.9745C-0.00459704 10.4192 0.298341 8.87824 0.891396 7.4404C1.48445 6.00256 2.35589 4.69623 3.45569 3.59643C4.55548 2.49664 5.86187 1.6252 7.29971 1.03214C8.73754 0.439088 10.2785 0.13615 11.8338 0.1408H45.0458L45.1515 79.7721Z" fill="#6CB2FF"/>
<path d="M58.4657 1.50598e-05H49.3086V21.6953H67.7636V9.57973C67.7823 8.34017 67.5566 7.10906 67.0993 5.95674C66.6421 4.80443 65.9624 3.75345 65.099 2.86386C64.2355 1.97427 63.2053 1.26355 62.0672 0.772163C60.929 0.280773 59.7053 0.0183779 58.4657 1.50598e-05Z" fill="#6CB2FF"/>
<path d="M254.636 33.1559C255.221 31.4987 256.406 30.1208 257.957 29.2941C259.473 28.4255 261.192 27.9726 262.939 27.9811C264.616 27.9918 266.258 28.4591 267.689 29.3327C269.178 30.2032 270.313 31.5706 270.894 33.1946L287.693 80H273.52L271.01 72.0446H254.443L252.01 80H238.262L254.636 33.1559ZM257.803 61.077H267.65L262.784 45.0118L257.803 61.077Z" fill="#6CB2FF"/>
<path d="M290.666 34.1258C290.647 33.1711 290.831 32.2232 291.207 31.3453C291.56 30.5752 292.058 29.8804 292.674 29.2986C293.268 28.7458 293.963 28.3132 294.721 28.0242C296.316 27.5103 298.031 27.5103 299.626 28.0242C300.409 28.305 301.126 28.7451 301.731 29.3167C302.335 29.8883 302.815 30.579 303.14 31.3453C303.533 32.2178 303.718 33.1696 303.681 34.1258V48.9554L318.858 30.3799C319.447 29.6433 320.183 29.0382 321.02 28.6035C321.772 28.1727 322.597 27.8847 323.453 27.7538C324.283 27.5989 325.134 27.5989 325.963 27.7538C326.762 27.8971 327.524 28.1992 328.203 28.6421C328.919 29.1256 329.535 29.7418 330.018 30.4572C330.482 31.1684 330.785 31.9723 330.906 32.8128C331.059 33.6556 331.059 34.5189 330.906 35.3617C330.67 36.2321 330.219 37.029 329.593 37.6788L317.39 51.2724L335.425 79.6955H320.441L308.855 60.6953L303.526 66.5267V79.7727H290.512L290.666 34.1258Z" fill="#6CB2FF"/>
<path d="M352.839 32.9659C353.424 31.3087 354.609 29.9308 356.16 29.1041C357.676 28.2355 359.394 27.7826 361.142 27.7911C362.818 27.8018 364.461 28.2691 365.892 29.1427C367.381 30.0132 368.516 31.3805 369.097 33.0046L385.896 79.81H371.723L369.213 71.8546H352.646L350.213 79.81H336.271L352.839 32.9659ZM356.005 60.887H365.853L360.949 44.8218L356.005 60.887Z" fill="#6CB2FF"/>
<path d="M230.694 79.7725H226.292C223.67 79.7725 221.155 78.731 219.301 76.8769C217.447 75.0229 216.405 72.5082 216.405 69.8862V41.7334H200.958V37.6399C200.958 34.9872 202.012 32.4431 203.888 30.5674C205.763 28.6916 208.307 27.6378 210.96 27.6378H230.269L230.694 79.7725Z" fill="#6CB2FF"/>
<path d="M239.423 27.6379L233.515 27.6379L233.515 41.7335L245.602 41.7335L245.602 33.8167C245.602 32.1779 244.951 30.6064 243.792 29.4476C242.634 28.2889 241.062 27.6379 239.423 27.6379Z" fill="#6CB2FF"/>
<path d="M175.725 73.788C173.837 75.3312 171.547 76.7029 168.857 77.9031C166.168 79.1033 162.734 79.7034 158.556 79.7034C155.236 79.7034 152.318 79.3034 149.799 78.5032C147.281 77.6459 145.164 76.4743 143.447 74.9883C141.73 73.4451 140.413 71.6734 139.498 69.673C138.639 67.6155 138.21 65.3865 138.21 62.986C138.21 60.9285 138.496 59.0996 139.068 57.4993C139.698 55.899 140.528 54.4415 141.558 53.127C142.645 51.8125 143.933 50.6123 145.421 49.5263C146.909 48.4404 148.512 47.3831 150.229 46.3543C149.37 45.4399 148.54 44.4397 147.739 43.3537C146.938 42.2678 146.222 41.1248 145.593 39.9245C144.963 38.7243 144.448 37.4669 144.048 36.1524C143.704 34.8379 143.533 33.4948 143.533 32.1231C143.533 30.1798 143.933 28.3509 144.734 26.6363C145.593 24.8646 146.795 23.3214 148.34 22.0069C149.942 20.6924 151.831 19.6636 154.006 18.9206C156.238 18.1776 158.727 17.8061 161.475 17.8061C163.936 17.8061 166.196 18.1204 168.257 18.7491C170.374 19.3207 172.206 20.2065 173.751 21.4068C175.296 22.5498 176.498 23.9787 177.356 25.6933C178.272 27.4079 178.73 29.3511 178.73 31.523C178.73 33.409 178.415 35.1236 177.786 36.6668C177.156 38.2099 176.298 39.6388 175.21 40.9533C174.123 42.2107 172.835 43.3823 171.347 44.4682C169.916 45.5542 168.4 46.5829 166.797 47.5545L176.069 57.585C176.813 55.7561 177.385 53.8129 177.786 51.7553C178.186 49.6978 178.444 47.6688 178.558 45.6685H192.895V56.2133H187.486C186.513 59.8711 185.226 63.0432 183.623 65.7294L195.556 78.6747H180.189L175.725 73.788ZM161.131 27.4936C159.586 27.4936 158.27 27.9223 157.182 28.7796C156.152 29.6369 155.637 30.8371 155.637 32.3803V32.7232C155.637 33.8663 156.009 35.0093 156.753 36.1524C157.497 37.2383 158.756 38.7815 160.53 40.7818C162.533 39.5816 164.05 38.3814 165.08 37.1812C166.11 35.9238 166.625 34.4378 166.625 32.7232V32.3803C166.625 30.8371 166.082 29.6369 164.994 28.7796C163.964 27.9223 162.676 27.4936 161.131 27.4936ZM160.444 69.1586C163.821 69.1586 166.711 68.3585 169.115 66.7581L156.495 53.127C154.55 54.2701 153.176 55.4417 152.375 56.642C151.574 57.8422 151.173 59.2139 151.173 60.757V61.6143C151.173 63.7862 151.946 65.5865 153.491 67.0153C155.036 68.4442 157.354 69.1586 160.444 69.1586Z" fill="#6CB2FF"/>
</svg>
