<svg width="738" height="638" viewBox="0 0 738 638" fill="none" xmlns="http://www.w3.org/2000/svg">
<path d="M356.628 63.785C362.084 54.3354 375.723 54.3354 381.179 63.785L688.065 595.327C693.52 604.776 686.701 616.588 675.789 616.588H62.0178C51.1063 616.588 44.2866 604.776 49.7423 595.326L356.628 63.785Z" fill="white" stroke="#F8F8F8" stroke-width="42.5233" stroke-linejoin="round"/>
<path d="M369.176 446.894C361.603 446.894 355.211 441.26 354.261 433.747L340.827 327.509V267.277C340.827 256.66 349.434 248.053 360.052 248.053H378.3C388.918 248.053 397.525 256.66 397.525 267.277V327.509L384.091 433.747C383.141 441.26 376.75 446.894 369.176 446.894ZM369.176 531.542C359.338 531.542 352.089 529.146 347.429 524.355C343.028 519.297 340.827 512.908 340.827 505.189V498.401C340.827 490.682 343.028 484.427 347.429 479.635C352.089 474.578 359.338 472.049 369.176 472.049C379.014 472.049 386.134 474.578 390.535 479.635C395.195 484.427 397.525 490.682 397.525 498.401V505.189C397.525 512.908 395.195 519.297 390.535 524.355C386.134 529.146 379.014 531.542 369.176 531.542Z" fill="#F8F8F8"/>
</svg>
